<mxfile host="app.diagrams.net" modified="2021-10-07T07:27:33.968Z" agent="5.0 (Windows NT 10.0; Win64; x64) AppleWebKit/537.36 (KHTML, like Gecko) Chrome/94.0.4606.71 Safari/537.36" etag="0NsdsyQy9hmZdRNg2c4p" version="14.8.2" type="github">
  <diagram id="Lerm4SlKwIWbFK3JSJiu" name="Page-1">
    <mxGraphModel dx="1673" dy="896" grid="1" gridSize="10" guides="1" tooltips="1" connect="1" arrows="1" fold="1" page="1" pageScale="1" pageWidth="1654" pageHeight="1169" math="0" shadow="0">
      <root>
        <mxCell id="0" />
        <mxCell id="1" parent="0" />
        <mxCell id="ZxN3DWVEo9xitp-DFpEb-1" value="" style="whiteSpace=wrap;html=1;aspect=fixed;" parent="1" vertex="1">
          <mxGeometry x="680" y="430" width="80" height="80" as="geometry" />
        </mxCell>
        <mxCell id="ZxN3DWVEo9xitp-DFpEb-2" value="" style="whiteSpace=wrap;html=1;aspect=fixed;" parent="1" vertex="1">
          <mxGeometry x="760" y="430" width="80" height="80" as="geometry" />
        </mxCell>
        <mxCell id="ZxN3DWVEo9xitp-DFpEb-3" value="&lt;b style=&quot;font-size: 30px&quot;&gt;M&lt;/b&gt;" style="whiteSpace=wrap;html=1;aspect=fixed;fillColor=#ffe6cc;strokeColor=#d79b00;" parent="1" vertex="1">
          <mxGeometry x="840" y="430" width="80" height="80" as="geometry" />
        </mxCell>
        <mxCell id="ZxN3DWVEo9xitp-DFpEb-22" style="edgeStyle=none;rounded=0;jumpStyle=none;orthogonalLoop=1;jettySize=auto;html=1;exitX=1;exitY=0.5;exitDx=0;exitDy=0;entryX=0;entryY=0.5;entryDx=0;entryDy=0;strokeColor=#000000;strokeWidth=2;endSize=16;" parent="1" source="ZxN3DWVEo9xitp-DFpEb-4" target="ZxN3DWVEo9xitp-DFpEb-13" edge="1">
          <mxGeometry relative="1" as="geometry" />
        </mxCell>
        <mxCell id="ZxN3DWVEo9xitp-DFpEb-4" value="&lt;font style=&quot;font-size: 30px&quot;&gt;&lt;b&gt;M&lt;/b&gt;&lt;/font&gt;" style="whiteSpace=wrap;html=1;aspect=fixed;fillColor=#ffe6cc;strokeColor=#d79b00;" parent="1" vertex="1">
          <mxGeometry x="920" y="430" width="80" height="80" as="geometry" />
        </mxCell>
        <mxCell id="ZxN3DWVEo9xitp-DFpEb-5" value="" style="whiteSpace=wrap;html=1;aspect=fixed;fillColor=#ffe6cc;strokeColor=#d79b00;" parent="1" vertex="1">
          <mxGeometry x="680" y="640" width="80" height="80" as="geometry" />
        </mxCell>
        <mxCell id="ZxN3DWVEo9xitp-DFpEb-6" value="" style="whiteSpace=wrap;html=1;aspect=fixed;fillColor=#ffe6cc;strokeColor=#d79b00;" parent="1" vertex="1">
          <mxGeometry x="760" y="640" width="80" height="80" as="geometry" />
        </mxCell>
        <mxCell id="ZxN3DWVEo9xitp-DFpEb-7" value="" style="whiteSpace=wrap;html=1;aspect=fixed;fillColor=#ffe6cc;strokeColor=#d79b00;" parent="1" vertex="1">
          <mxGeometry x="840" y="640" width="80" height="80" as="geometry" />
        </mxCell>
        <mxCell id="ZxN3DWVEo9xitp-DFpEb-23" style="edgeStyle=none;rounded=0;jumpStyle=none;orthogonalLoop=1;jettySize=auto;html=1;exitX=1;exitY=0.5;exitDx=0;exitDy=0;entryX=0;entryY=0.5;entryDx=0;entryDy=0;strokeColor=#000000;strokeWidth=2;endSize=16;" parent="1" source="ZxN3DWVEo9xitp-DFpEb-8" target="ZxN3DWVEo9xitp-DFpEb-15" edge="1">
          <mxGeometry relative="1" as="geometry" />
        </mxCell>
        <mxCell id="ZxN3DWVEo9xitp-DFpEb-8" value="&lt;font style=&quot;font-size: 30px&quot;&gt;&lt;b&gt;M&lt;/b&gt;&lt;/font&gt;" style="whiteSpace=wrap;html=1;aspect=fixed;fillColor=#ffe6cc;strokeColor=#d79b00;" parent="1" vertex="1">
          <mxGeometry x="920" y="640" width="80" height="80" as="geometry" />
        </mxCell>
        <mxCell id="ZxN3DWVEo9xitp-DFpEb-16" style="orthogonalLoop=1;jettySize=auto;html=1;exitX=1;exitY=0;exitDx=0;exitDy=0;entryX=0;entryY=0.5;entryDx=0;entryDy=0;rounded=0;strokeWidth=2;jumpStyle=none;endSize=16;" parent="1" source="ZxN3DWVEo9xitp-DFpEb-9" target="ZxN3DWVEo9xitp-DFpEb-10" edge="1">
          <mxGeometry relative="1" as="geometry" />
        </mxCell>
        <mxCell id="ZxN3DWVEo9xitp-DFpEb-17" style="edgeStyle=none;rounded=0;jumpStyle=none;orthogonalLoop=1;jettySize=auto;html=1;exitX=1;exitY=1;exitDx=0;exitDy=0;entryX=0;entryY=0.5;entryDx=0;entryDy=0;strokeColor=#000000;strokeWidth=2;endSize=16;" parent="1" source="ZxN3DWVEo9xitp-DFpEb-9" target="ZxN3DWVEo9xitp-DFpEb-5" edge="1">
          <mxGeometry relative="1" as="geometry" />
        </mxCell>
        <mxCell id="ZxN3DWVEo9xitp-DFpEb-9" value="Exchange" style="ellipse;aspect=fixed;fillColor=#e1d5e7;strokeColor=#9673a6;whiteSpace=wrap;html=1;fontSize=24;fontStyle=1" parent="1" vertex="1">
          <mxGeometry x="460" y="510" width="120" height="120" as="geometry" />
        </mxCell>
        <mxCell id="ZxN3DWVEo9xitp-DFpEb-10" value="" style="whiteSpace=wrap;html=1;aspect=fixed;fillColor=#ffe6cc;strokeColor=#d79b00;" parent="1" vertex="1">
          <mxGeometry x="680" y="430" width="80" height="80" as="geometry" />
        </mxCell>
        <mxCell id="ZxN3DWVEo9xitp-DFpEb-11" value="" style="whiteSpace=wrap;html=1;aspect=fixed;fillColor=#ffe6cc;strokeColor=#d79b00;" parent="1" vertex="1">
          <mxGeometry x="760" y="430" width="80" height="80" as="geometry" />
        </mxCell>
        <mxCell id="ZxN3DWVEo9xitp-DFpEb-19" style="edgeStyle=none;rounded=0;jumpStyle=none;orthogonalLoop=1;jettySize=auto;html=1;exitX=0.5;exitY=1;exitDx=0;exitDy=0;entryX=0.5;entryY=0;entryDx=0;entryDy=0;strokeColor=#000000;strokeWidth=2;startSize=6;jumpSize=6;targetPerimeterSpacing=0;endSize=16;" parent="1" source="ZxN3DWVEo9xitp-DFpEb-12" target="ZxN3DWVEo9xitp-DFpEb-14" edge="1">
          <mxGeometry relative="1" as="geometry" />
        </mxCell>
        <mxCell id="ZxN3DWVEo9xitp-DFpEb-26" style="edgeStyle=orthogonalEdgeStyle;rounded=0;jumpStyle=none;jumpSize=6;orthogonalLoop=1;jettySize=auto;html=1;entryX=0;entryY=0.5;entryDx=0;entryDy=0;startArrow=classic;startFill=1;targetPerimeterSpacing=0;strokeColor=#000000;strokeWidth=2;shape=flexArrow;" parent="1" source="ZxN3DWVEo9xitp-DFpEb-12" target="ZxN3DWVEo9xitp-DFpEb-20" edge="1">
          <mxGeometry relative="1" as="geometry" />
        </mxCell>
        <mxCell id="ZxN3DWVEo9xitp-DFpEb-12" value="&lt;font style=&quot;font-size: 30px&quot;&gt;ПП ГМУ&lt;/font&gt;" style="rounded=0;whiteSpace=wrap;html=1;fillColor=#f5f5f5;strokeColor=#666666;fontColor=#333333;" parent="1" vertex="1">
          <mxGeometry x="40" y="220" width="220" height="100" as="geometry" />
        </mxCell>
        <mxCell id="ZxN3DWVEo9xitp-DFpEb-24" style="edgeStyle=orthogonalEdgeStyle;rounded=0;jumpStyle=none;orthogonalLoop=1;jettySize=auto;html=1;entryX=1;entryY=0.5;entryDx=0;entryDy=0;strokeColor=#000000;strokeWidth=2;startArrow=classic;startFill=1;shape=flexArrow;" parent="1" source="ZxN3DWVEo9xitp-DFpEb-13" target="ZxN3DWVEo9xitp-DFpEb-20" edge="1">
          <mxGeometry relative="1" as="geometry">
            <Array as="points">
              <mxPoint x="1268" y="270" />
            </Array>
          </mxGeometry>
        </mxCell>
        <mxCell id="ZxN3DWVEo9xitp-DFpEb-13" value="&lt;font style=&quot;font-size: 24px&quot;&gt;Организация 1&lt;/font&gt;" style="ellipse;whiteSpace=wrap;html=1;fillColor=#d5e8d4;strokeColor=#82b366;" parent="1" vertex="1">
          <mxGeometry x="1183" y="420" width="170" height="100" as="geometry" />
        </mxCell>
        <mxCell id="ZxN3DWVEo9xitp-DFpEb-18" style="edgeStyle=none;rounded=0;jumpStyle=none;orthogonalLoop=1;jettySize=auto;html=1;exitX=1;exitY=0.5;exitDx=0;exitDy=0;entryX=0;entryY=0.5;entryDx=0;entryDy=0;strokeColor=#000000;strokeWidth=2;endSize=16;" parent="1" source="ZxN3DWVEo9xitp-DFpEb-14" target="ZxN3DWVEo9xitp-DFpEb-9" edge="1">
          <mxGeometry relative="1" as="geometry" />
        </mxCell>
        <mxCell id="ZxN3DWVEo9xitp-DFpEb-14" value="&lt;span style=&quot;font-size: 30px&quot;&gt;RabbitMQ&lt;/span&gt;" style="rounded=0;whiteSpace=wrap;html=1;fillColor=#f5f5f5;strokeColor=#666666;fontColor=#333333;" parent="1" vertex="1">
          <mxGeometry x="40" y="520" width="220" height="100" as="geometry" />
        </mxCell>
        <mxCell id="ZxN3DWVEo9xitp-DFpEb-25" style="edgeStyle=orthogonalEdgeStyle;rounded=0;jumpStyle=none;orthogonalLoop=1;jettySize=auto;html=1;strokeColor=#000000;strokeWidth=2;startArrow=classic;startFill=1;shape=flexArrow;exitX=1;exitY=0.5;exitDx=0;exitDy=0;" parent="1" source="ZxN3DWVEo9xitp-DFpEb-15" edge="1">
          <mxGeometry relative="1" as="geometry">
            <mxPoint x="580" y="270" as="targetPoint" />
            <Array as="points">
              <mxPoint x="1430" y="680" />
              <mxPoint x="1430" y="270" />
            </Array>
          </mxGeometry>
        </mxCell>
        <mxCell id="ZxN3DWVEo9xitp-DFpEb-15" value="&lt;font style=&quot;font-size: 24px&quot;&gt;Организация 2&lt;/font&gt;" style="ellipse;whiteSpace=wrap;html=1;fillColor=#d5e8d4;strokeColor=#82b366;" parent="1" vertex="1">
          <mxGeometry x="1183" y="630" width="170" height="100" as="geometry" />
        </mxCell>
        <mxCell id="ZxN3DWVEo9xitp-DFpEb-20" value="&lt;span style=&quot;font-size: 30px&quot;&gt;&lt;b&gt;API&lt;/b&gt;&lt;/span&gt;" style="ellipse;whiteSpace=wrap;html=1;aspect=fixed;fillColor=#e1d5e7;strokeColor=#9673a6;" parent="1" vertex="1">
          <mxGeometry x="460" y="210" width="120" height="120" as="geometry" />
        </mxCell>
        <mxCell id="ZxN3DWVEo9xitp-DFpEb-27" value="&lt;span style=&quot;font-size: 24px&quot;&gt;Очередь 1&lt;/span&gt;" style="text;html=1;strokeColor=none;fillColor=none;align=center;verticalAlign=middle;whiteSpace=wrap;rounded=0;" parent="1" vertex="1">
          <mxGeometry x="780" y="400" width="120" height="20" as="geometry" />
        </mxCell>
        <mxCell id="ZxN3DWVEo9xitp-DFpEb-29" value="&lt;span style=&quot;font-size: 24px&quot;&gt;Очередь 2&lt;/span&gt;" style="text;html=1;strokeColor=none;fillColor=none;align=center;verticalAlign=middle;whiteSpace=wrap;rounded=0;" parent="1" vertex="1">
          <mxGeometry x="780" y="600" width="120" height="20" as="geometry" />
        </mxCell>
        <mxCell id="ZxN3DWVEo9xitp-DFpEb-30" value="Сообщение с меткой Орг. 1" style="swimlane;fontStyle=0;childLayout=stackLayout;horizontal=1;startSize=40;horizontalStack=0;resizeParent=1;resizeParentMax=0;resizeLast=0;collapsible=1;marginBottom=0;fontSize=18;whiteSpace=wrap;" parent="1" vertex="1">
          <mxGeometry x="280" y="490" width="140" height="70" as="geometry" />
        </mxCell>
        <mxCell id="ZxN3DWVEo9xitp-DFpEb-31" value="Тело сообщения" style="text;strokeColor=none;fillColor=none;align=left;verticalAlign=top;spacingLeft=4;spacingRight=4;overflow=hidden;rotatable=0;points=[[0,0.5],[1,0.5]];portConstraint=eastwest;fontSize=14;whiteSpace=wrap;" parent="ZxN3DWVEo9xitp-DFpEb-30" vertex="1">
          <mxGeometry y="40" width="140" height="30" as="geometry" />
        </mxCell>
        <mxCell id="ZxN3DWVEo9xitp-DFpEb-37" value="&lt;font style=&quot;font-size: 18px&quot;&gt;Передача статусов дела с меткой организации&lt;/font&gt;" style="text;html=1;strokeColor=none;fillColor=none;align=center;verticalAlign=middle;whiteSpace=wrap;rounded=0;fontSize=16;" parent="1" vertex="1">
          <mxGeometry x="150" y="380" width="150" height="40" as="geometry" />
        </mxCell>
        <mxCell id="ZxN3DWVEo9xitp-DFpEb-40" value="Распределение сообщений по отдельным очередям для каждой из внешних организаций" style="text;html=1;strokeColor=none;fillColor=none;align=center;verticalAlign=middle;whiteSpace=wrap;rounded=0;fontSize=16;" parent="1" vertex="1">
          <mxGeometry x="450" y="365" width="210" height="90" as="geometry" />
        </mxCell>
        <mxCell id="ZxN3DWVEo9xitp-DFpEb-43" value="" style="endArrow=none;dashed=1;html=1;fontSize=16;targetPerimeterSpacing=0;strokeColor=#000000;strokeWidth=2;entryX=0.5;entryY=1;entryDx=0;entryDy=0;" parent="1" source="ZxN3DWVEo9xitp-DFpEb-9" target="ZxN3DWVEo9xitp-DFpEb-40" edge="1">
          <mxGeometry width="50" height="50" relative="1" as="geometry">
            <mxPoint x="500" y="500" as="sourcePoint" />
            <mxPoint x="550" y="450" as="targetPoint" />
          </mxGeometry>
        </mxCell>
        <mxCell id="ZxN3DWVEo9xitp-DFpEb-44" value="Прослушивание очереди и получение сообщений по мере поступления" style="text;html=1;strokeColor=none;fillColor=none;align=center;verticalAlign=middle;whiteSpace=wrap;rounded=0;fontSize=16;" parent="1" vertex="1">
          <mxGeometry x="1023" y="525" width="160" height="90" as="geometry" />
        </mxCell>
        <mxCell id="ZxN3DWVEo9xitp-DFpEb-45" value="" style="endArrow=none;dashed=1;html=1;dashPattern=1 3;strokeWidth=2;fontSize=16;targetPerimeterSpacing=0;entryX=0.5;entryY=0;entryDx=0;entryDy=0;" parent="1" target="ZxN3DWVEo9xitp-DFpEb-44" edge="1">
          <mxGeometry width="50" height="50" relative="1" as="geometry">
            <mxPoint x="1090" y="470" as="sourcePoint" />
            <mxPoint x="1120" y="420" as="targetPoint" />
          </mxGeometry>
        </mxCell>
        <mxCell id="ZxN3DWVEo9xitp-DFpEb-46" value="Запрос по API дела и документов из ПП ГМУ.&lt;br&gt;Возвращение по API статусов и документов дела&amp;nbsp;&lt;br&gt;&amp;nbsp;(результатов, промежуточных)&lt;br&gt;&amp;nbsp;в ПП ГМУ." style="text;html=1;strokeColor=none;fillColor=none;align=center;verticalAlign=middle;whiteSpace=wrap;rounded=0;fontSize=16;" parent="1" vertex="1">
          <mxGeometry x="1210" y="120" width="240" height="110" as="geometry" />
        </mxCell>
        <mxCell id="ZxN3DWVEo9xitp-DFpEb-47" value="" style="endArrow=none;dashed=1;html=1;dashPattern=1 3;strokeWidth=2;fontSize=16;targetPerimeterSpacing=0;entryX=0.5;entryY=1;entryDx=0;entryDy=0;" parent="1" target="ZxN3DWVEo9xitp-DFpEb-46" edge="1">
          <mxGeometry width="50" height="50" relative="1" as="geometry">
            <mxPoint x="1280" y="260" as="sourcePoint" />
            <mxPoint x="1390" y="210" as="targetPoint" />
          </mxGeometry>
        </mxCell>
        <mxCell id="ZxN3DWVEo9xitp-DFpEb-48" value="" style="endArrow=none;dashed=1;html=1;dashPattern=1 3;strokeWidth=2;fontSize=16;targetPerimeterSpacing=0;entryX=0.5;entryY=1;entryDx=0;entryDy=0;" parent="1" target="ZxN3DWVEo9xitp-DFpEb-44" edge="1">
          <mxGeometry width="50" height="50" relative="1" as="geometry">
            <mxPoint x="1080" y="680" as="sourcePoint" />
            <mxPoint x="1110" y="607" as="targetPoint" />
          </mxGeometry>
        </mxCell>
        <mxCell id="ga6P18jWlzBxlrKstc2S-1" value="Сообщение с меткой Орг. 2" style="swimlane;fontStyle=0;childLayout=stackLayout;horizontal=1;startSize=40;horizontalStack=0;resizeParent=1;resizeParentMax=0;resizeLast=0;collapsible=1;marginBottom=0;fontSize=18;whiteSpace=wrap;" parent="1" vertex="1">
          <mxGeometry x="280" y="590" width="140" height="70" as="geometry" />
        </mxCell>
        <mxCell id="ga6P18jWlzBxlrKstc2S-2" value="Тело сообщения" style="text;strokeColor=none;fillColor=none;align=left;verticalAlign=top;spacingLeft=4;spacingRight=4;overflow=hidden;rotatable=0;points=[[0,0.5],[1,0.5]];portConstraint=eastwest;fontSize=14;whiteSpace=wrap;" parent="ga6P18jWlzBxlrKstc2S-1" vertex="1">
          <mxGeometry y="40" width="140" height="30" as="geometry" />
        </mxCell>
      </root>
    </mxGraphModel>
  </diagram>
</mxfile>
